<?xml version="1.0" encoding="utf-8" standalone="no"?>
<!DOCTYPE svg PUBLIC "-//W3C//DTD SVG 1.1//EN"
  "http://www.w3.org/Graphics/SVG/1.1/DTD/svg11.dtd">
<svg xmlns:xlink="http://www.w3.org/1999/xlink" width="669.726563pt" height="360.074375pt" viewBox="0 0 669.726563 360.074375" xmlns="http://www.w3.org/2000/svg" version="1.1">
 <metadata>
  <rdf:RDF xmlns:dc="http://purl.org/dc/elements/1.1/" xmlns:cc="http://creativecommons.org/ns#" xmlns:rdf="http://www.w3.org/1999/02/22-rdf-syntax-ns#">
   <cc:Work>
    <dc:type rdf:resource="http://purl.org/dc/dcmitype/StillImage"/>
    <dc:date>2026-04-28T00:12:14.728414</dc:date>
    <dc:format>image/svg+xml</dc:format>
    <dc:creator>
     <cc:Agent>
      <dc:title>Matplotlib v3.10.6, https://matplotlib.org/</dc:title>
     </cc:Agent>
    </dc:creator>
   </cc:Work>
  </rdf:RDF>
 </metadata>
 <defs>
  <style type="text/css">*{stroke-linejoin: round; stroke-linecap: butt}</style>
 </defs>
 <g id="figure_1">
  <g id="patch_1">
   <path d="M 0 360.074375 
L 669.726563 360.074375 
L 669.726563 0 
L 0 0 
z
" style="fill: #ffffff"/>
  </g>
  <g id="axes_1">
   <g id="patch_2">
    <path d="M 61.707813 322.518125 
L 652.982813 322.518125 
L 652.982813 22.318125 
L 61.707813 22.318125 
z
" style="fill: #ffffff"/>
   </g>
   <g id="FillBetweenPolyCollection_1">
    <defs>
     <path id="m0a2910f80d" d="M 91.271563 -177.508736 
L 91.271563 -153.678874 
L 120.835313 -126.502045 
L 150.399063 -198.922864 
L 179.962813 -212.755964 
L 209.526563 -218.542629 
L 239.090313 -104.769737 
L 268.654063 -219.824074 
L 298.217813 -141.994704 
L 327.781563 -223.702675 
L 357.345313 -229.174397 
L 386.909063 -232.873993 
L 416.472813 -251.6323 
L 446.036563 -259.523286 
L 475.600313 -276.166679 
L 505.164063 -279.060671 
L 534.727813 -296.452982 
L 564.291563 -253.888183 
L 593.855313 -268.946483 
L 623.419063 -285.042198 
L 652.982813 -278.611569 
L 652.982813 -291.959414 
L 652.982813 -291.959414 
L 623.419063 -309.018487 
L 593.855313 -306.393525 
L 564.291563 -306.49891 
L 534.727813 -324.110795 
L 505.164063 -279.327579 
L 475.600313 -299.845625 
L 446.036563 -298.701611 
L 416.472813 -295.034138 
L 386.909063 -274.381985 
L 357.345313 -280.431993 
L 327.781563 -283.620792 
L 298.217813 -222.740753 
L 268.654063 -256.973483 
L 239.090313 -274.287316 
L 209.526563 -265.852424 
L 179.962813 -250.823714 
L 150.399063 -255.688716 
L 120.835313 -206.867402 
L 91.271563 -177.508736 
z
"/>
    </defs>
    <g clip-path="url(#pb45f1f3a7b)">
     <use xlink:href="#m0a2910f80d" x="0" y="360.074375" style="fill: #1f77b4; fill-opacity: 0.1"/>
    </g>
   </g>
   <g id="FillBetweenPolyCollection_2">
    <defs>
     <path id="m3a22a52499" d="M 209.526563 -252.575323 
L 209.526563 -214.676986 
L 357.345313 -256.776453 
L 505.164063 -264.045369 
L 652.982813 -286.004004 
L 652.982813 -317.137939 
L 652.982813 -317.137939 
L 505.164063 -312.434957 
L 357.345313 -270.904374 
L 209.526563 -252.575323 
z
"/>
    </defs>
    <g clip-path="url(#pb45f1f3a7b)">
     <use xlink:href="#m3a22a52499" x="0" y="360.074375" style="fill: #2ca02c; fill-opacity: 0.1"/>
    </g>
   </g>
   <g id="FillBetweenPolyCollection_3">
    <defs>
     <path id="mbbaf4c6009" d="M 209.526563 -293.047541 
L 209.526563 -231.970762 
L 357.345313 -237.990533 
L 505.164063 -295.133813 
L 652.982813 -267.723425 
L 652.982813 -321.32554 
L 652.982813 -321.32554 
L 505.164063 -317.423749 
L 357.345313 -262.908572 
L 209.526563 -293.047541 
z
"/>
    </defs>
    <g clip-path="url(#pb45f1f3a7b)">
     <use xlink:href="#mbbaf4c6009" x="0" y="360.074375" style="fill: #ff7f0e; fill-opacity: 0.1"/>
    </g>
   </g>
   <g id="FillBetweenPolyCollection_4">
    <defs>
     <path id="m69a8519e59" d="M 209.526563 -278.247174 
L 209.526563 -138.81008 
L 357.345313 -236.206315 
L 505.164063 -269.599942 
L 652.982813 -182.596118 
L 652.982813 -309.871758 
L 652.982813 -309.871758 
L 505.164063 -301.065304 
L 357.345313 -269.5635 
L 209.526563 -278.247174 
z
"/>
    </defs>
    <g clip-path="url(#pb45f1f3a7b)">
     <use xlink:href="#m69a8519e59" x="0" y="360.074375" style="fill: #9467bd; fill-opacity: 0.1"/>
    </g>
   </g>
   <g id="FillBetweenPolyCollection_5">
    <defs>
     <path id="m14b2de89e6" d="M 209.526563 -257.902959 
L 209.526563 -255.760908 
L 357.345313 -278.080447 
L 505.164063 -235.099395 
L 652.982813 -291.364327 
L 652.982813 -310.773937 
L 652.982813 -310.773937 
L 505.164063 -300.920605 
L 357.345313 -278.911332 
L 209.526563 -257.902959 
z
"/>
    </defs>
    <g clip-path="url(#pb45f1f3a7b)">
     <use xlink:href="#m14b2de89e6" x="0" y="360.074375" style="fill: #8c564b; fill-opacity: 0.1"/>
    </g>
   </g>
   <g id="matplotlib.axis_1">
    <g id="xtick_1">
     <g id="line2d_1">
      <path d="M 61.707813 322.518125 
L 61.707813 22.318125 
" clip-path="url(#pb45f1f3a7b)" style="fill: none; stroke-dasharray: 2.96,1.28; stroke-dashoffset: 0; stroke: #b0b0b0; stroke-opacity: 0.25; stroke-width: 0.8"/>
     </g>
     <g id="line2d_2">
      <defs>
       <path id="mc9ff5d96a0" d="M 0 0 
L 0 3.5 
" style="stroke: #000000; stroke-width: 0.8"/>
      </defs>
      <g>
       <use xlink:href="#mc9ff5d96a0" x="61.707813" y="322.518125" style="stroke: #000000; stroke-width: 0.8"/>
      </g>
     </g>
     <g id="text_1">
      <!-- 0 -->
      <g transform="translate(58.526563 337.116563) scale(0.1 -0.1)">
       <defs>
        <path id="DejaVuSans-30" d="M 2034 4250 
Q 1547 4250 1301 3770 
Q 1056 3291 1056 2328 
Q 1056 1369 1301 889 
Q 1547 409 2034 409 
Q 2525 409 2770 889 
Q 3016 1369 3016 2328 
Q 3016 3291 2770 3770 
Q 2525 4250 2034 4250 
z
M 2034 4750 
Q 2819 4750 3233 4129 
Q 3647 3509 3647 2328 
Q 3647 1150 3233 529 
Q 2819 -91 2034 -91 
Q 1250 -91 836 529 
Q 422 1150 422 2328 
Q 422 3509 836 4129 
Q 1250 4750 2034 4750 
z
" transform="scale(0.015625)"/>
       </defs>
       <use xlink:href="#DejaVuSans-30"/>
      </g>
     </g>
    </g>
    <g id="xtick_2">
     <g id="line2d_3">
      <path d="M 135.617188 322.518125 
L 135.617188 22.318125 
" clip-path="url(#pb45f1f3a7b)" style="fill: none; stroke-dasharray: 2.96,1.28; stroke-dashoffset: 0; stroke: #b0b0b0; stroke-opacity: 0.25; stroke-width: 0.8"/>
     </g>
     <g id="line2d_4">
      <g>
       <use xlink:href="#mc9ff5d96a0" x="135.617188" y="322.518125" style="stroke: #000000; stroke-width: 0.8"/>
      </g>
     </g>
     <g id="text_2">
      <!-- 25 -->
      <g transform="translate(129.254688 337.116563) scale(0.1 -0.1)">
       <defs>
        <path id="DejaVuSans-32" d="M 1228 531 
L 3431 531 
L 3431 0 
L 469 0 
L 469 531 
Q 828 903 1448 1529 
Q 2069 2156 2228 2338 
Q 2531 2678 2651 2914 
Q 2772 3150 2772 3378 
Q 2772 3750 2511 3984 
Q 2250 4219 1831 4219 
Q 1534 4219 1204 4116 
Q 875 4013 500 3803 
L 500 4441 
Q 881 4594 1212 4672 
Q 1544 4750 1819 4750 
Q 2544 4750 2975 4387 
Q 3406 4025 3406 3419 
Q 3406 3131 3298 2873 
Q 3191 2616 2906 2266 
Q 2828 2175 2409 1742 
Q 1991 1309 1228 531 
z
" transform="scale(0.015625)"/>
        <path id="DejaVuSans-35" d="M 691 4666 
L 3169 4666 
L 3169 4134 
L 1269 4134 
L 1269 2991 
Q 1406 3038 1543 3061 
Q 1681 3084 1819 3084 
Q 2600 3084 3056 2656 
Q 3513 2228 3513 1497 
Q 3513 744 3044 326 
Q 2575 -91 1722 -91 
Q 1428 -91 1123 -41 
Q 819 9 494 109 
L 494 744 
Q 775 591 1075 516 
Q 1375 441 1709 441 
Q 2250 441 2565 725 
Q 2881 1009 2881 1497 
Q 2881 1984 2565 2268 
Q 2250 2553 1709 2553 
Q 1456 2553 1204 2497 
Q 953 2441 691 2322 
L 691 4666 
z
" transform="scale(0.015625)"/>
       </defs>
       <use xlink:href="#DejaVuSans-32"/>
       <use xlink:href="#DejaVuSans-35" transform="translate(63.623047 0)"/>
      </g>
     </g>
    </g>
    <g id="xtick_3">
     <g id="line2d_5">
      <path d="M 209.526563 322.518125 
L 209.526563 22.318125 
" clip-path="url(#pb45f1f3a7b)" style="fill: none; stroke-dasharray: 2.96,1.28; stroke-dashoffset: 0; stroke: #b0b0b0; stroke-opacity: 0.25; stroke-width: 0.8"/>
     </g>
     <g id="line2d_6">
      <g>
       <use xlink:href="#mc9ff5d96a0" x="209.526563" y="322.518125" style="stroke: #000000; stroke-width: 0.8"/>
      </g>
     </g>
     <g id="text_3">
      <!-- 50 -->
      <g transform="translate(203.164063 337.116563) scale(0.1 -0.1)">
       <use xlink:href="#DejaVuSans-35"/>
       <use xlink:href="#DejaVuSans-30" transform="translate(63.623047 0)"/>
      </g>
     </g>
    </g>
    <g id="xtick_4">
     <g id="line2d_7">
      <path d="M 283.435938 322.518125 
L 283.435938 22.318125 
" clip-path="url(#pb45f1f3a7b)" style="fill: none; stroke-dasharray: 2.96,1.28; stroke-dashoffset: 0; stroke: #b0b0b0; stroke-opacity: 0.25; stroke-width: 0.8"/>
     </g>
     <g id="line2d_8">
      <g>
       <use xlink:href="#mc9ff5d96a0" x="283.435938" y="322.518125" style="stroke: #000000; stroke-width: 0.8"/>
      </g>
     </g>
     <g id="text_4">
      <!-- 75 -->
      <g transform="translate(277.073438 337.116563) scale(0.1 -0.1)">
       <defs>
        <path id="DejaVuSans-37" d="M 525 4666 
L 3525 4666 
L 3525 4397 
L 1831 0 
L 1172 0 
L 2766 4134 
L 525 4134 
L 525 4666 
z
" transform="scale(0.015625)"/>
       </defs>
       <use xlink:href="#DejaVuSans-37"/>
       <use xlink:href="#DejaVuSans-35" transform="translate(63.623047 0)"/>
      </g>
     </g>
    </g>
    <g id="xtick_5">
     <g id="line2d_9">
      <path d="M 357.345313 322.518125 
L 357.345313 22.318125 
" clip-path="url(#pb45f1f3a7b)" style="fill: none; stroke-dasharray: 2.96,1.28; stroke-dashoffset: 0; stroke: #b0b0b0; stroke-opacity: 0.25; stroke-width: 0.8"/>
     </g>
     <g id="line2d_10">
      <g>
       <use xlink:href="#mc9ff5d96a0" x="357.345313" y="322.518125" style="stroke: #000000; stroke-width: 0.8"/>
      </g>
     </g>
     <g id="text_5">
      <!-- 100 -->
      <g transform="translate(347.801563 337.116563) scale(0.1 -0.1)">
       <defs>
        <path id="DejaVuSans-31" d="M 794 531 
L 1825 531 
L 1825 4091 
L 703 3866 
L 703 4441 
L 1819 4666 
L 2450 4666 
L 2450 531 
L 3481 531 
L 3481 0 
L 794 0 
L 794 531 
z
" transform="scale(0.015625)"/>
       </defs>
       <use xlink:href="#DejaVuSans-31"/>
       <use xlink:href="#DejaVuSans-30" transform="translate(63.623047 0)"/>
       <use xlink:href="#DejaVuSans-30" transform="translate(127.246094 0)"/>
      </g>
     </g>
    </g>
    <g id="xtick_6">
     <g id="line2d_11">
      <path d="M 431.254688 322.518125 
L 431.254688 22.318125 
" clip-path="url(#pb45f1f3a7b)" style="fill: none; stroke-dasharray: 2.96,1.28; stroke-dashoffset: 0; stroke: #b0b0b0; stroke-opacity: 0.25; stroke-width: 0.8"/>
     </g>
     <g id="line2d_12">
      <g>
       <use xlink:href="#mc9ff5d96a0" x="431.254688" y="322.518125" style="stroke: #000000; stroke-width: 0.8"/>
      </g>
     </g>
     <g id="text_6">
      <!-- 125 -->
      <g transform="translate(421.710938 337.116563) scale(0.1 -0.1)">
       <use xlink:href="#DejaVuSans-31"/>
       <use xlink:href="#DejaVuSans-32" transform="translate(63.623047 0)"/>
       <use xlink:href="#DejaVuSans-35" transform="translate(127.246094 0)"/>
      </g>
     </g>
    </g>
    <g id="xtick_7">
     <g id="line2d_13">
      <path d="M 505.164063 322.518125 
L 505.164063 22.318125 
" clip-path="url(#pb45f1f3a7b)" style="fill: none; stroke-dasharray: 2.96,1.28; stroke-dashoffset: 0; stroke: #b0b0b0; stroke-opacity: 0.25; stroke-width: 0.8"/>
     </g>
     <g id="line2d_14">
      <g>
       <use xlink:href="#mc9ff5d96a0" x="505.164063" y="322.518125" style="stroke: #000000; stroke-width: 0.8"/>
      </g>
     </g>
     <g id="text_7">
      <!-- 150 -->
      <g transform="translate(495.620313 337.116563) scale(0.1 -0.1)">
       <use xlink:href="#DejaVuSans-31"/>
       <use xlink:href="#DejaVuSans-35" transform="translate(63.623047 0)"/>
       <use xlink:href="#DejaVuSans-30" transform="translate(127.246094 0)"/>
      </g>
     </g>
    </g>
    <g id="xtick_8">
     <g id="line2d_15">
      <path d="M 579.073438 322.518125 
L 579.073438 22.318125 
" clip-path="url(#pb45f1f3a7b)" style="fill: none; stroke-dasharray: 2.96,1.28; stroke-dashoffset: 0; stroke: #b0b0b0; stroke-opacity: 0.25; stroke-width: 0.8"/>
     </g>
     <g id="line2d_16">
      <g>
       <use xlink:href="#mc9ff5d96a0" x="579.073438" y="322.518125" style="stroke: #000000; stroke-width: 0.8"/>
      </g>
     </g>
     <g id="text_8">
      <!-- 175 -->
      <g transform="translate(569.529688 337.116563) scale(0.1 -0.1)">
       <use xlink:href="#DejaVuSans-31"/>
       <use xlink:href="#DejaVuSans-37" transform="translate(63.623047 0)"/>
       <use xlink:href="#DejaVuSans-35" transform="translate(127.246094 0)"/>
      </g>
     </g>
    </g>
    <g id="xtick_9">
     <g id="line2d_17">
      <path d="M 652.982813 322.518125 
L 652.982813 22.318125 
" clip-path="url(#pb45f1f3a7b)" style="fill: none; stroke-dasharray: 2.96,1.28; stroke-dashoffset: 0; stroke: #b0b0b0; stroke-opacity: 0.25; stroke-width: 0.8"/>
     </g>
     <g id="line2d_18">
      <g>
       <use xlink:href="#mc9ff5d96a0" x="652.982813" y="322.518125" style="stroke: #000000; stroke-width: 0.8"/>
      </g>
     </g>
     <g id="text_9">
      <!-- 200 -->
      <g transform="translate(643.439063 337.116563) scale(0.1 -0.1)">
       <use xlink:href="#DejaVuSans-32"/>
       <use xlink:href="#DejaVuSans-30" transform="translate(63.623047 0)"/>
       <use xlink:href="#DejaVuSans-30" transform="translate(127.246094 0)"/>
      </g>
     </g>
    </g>
    <g id="text_10">
     <!-- Online training steps (K) -->
     <g transform="translate(296.479688 350.794688) scale(0.1 -0.1)">
      <defs>
       <path id="DejaVuSans-4f" d="M 2522 4238 
Q 1834 4238 1429 3725 
Q 1025 3213 1025 2328 
Q 1025 1447 1429 934 
Q 1834 422 2522 422 
Q 3209 422 3611 934 
Q 4013 1447 4013 2328 
Q 4013 3213 3611 3725 
Q 3209 4238 2522 4238 
z
M 2522 4750 
Q 3503 4750 4090 4092 
Q 4678 3434 4678 2328 
Q 4678 1225 4090 567 
Q 3503 -91 2522 -91 
Q 1538 -91 948 565 
Q 359 1222 359 2328 
Q 359 3434 948 4092 
Q 1538 4750 2522 4750 
z
" transform="scale(0.015625)"/>
       <path id="DejaVuSans-6e" d="M 3513 2113 
L 3513 0 
L 2938 0 
L 2938 2094 
Q 2938 2591 2744 2837 
Q 2550 3084 2163 3084 
Q 1697 3084 1428 2787 
Q 1159 2491 1159 1978 
L 1159 0 
L 581 0 
L 581 3500 
L 1159 3500 
L 1159 2956 
Q 1366 3272 1645 3428 
Q 1925 3584 2291 3584 
Q 2894 3584 3203 3211 
Q 3513 2838 3513 2113 
z
" transform="scale(0.015625)"/>
       <path id="DejaVuSans-6c" d="M 603 4863 
L 1178 4863 
L 1178 0 
L 603 0 
L 603 4863 
z
" transform="scale(0.015625)"/>
       <path id="DejaVuSans-69" d="M 603 3500 
L 1178 3500 
L 1178 0 
L 603 0 
L 603 3500 
z
M 603 4863 
L 1178 4863 
L 1178 4134 
L 603 4134 
L 603 4863 
z
" transform="scale(0.015625)"/>
       <path id="DejaVuSans-65" d="M 3597 1894 
L 3597 1613 
L 953 1613 
Q 991 1019 1311 708 
Q 1631 397 2203 397 
Q 2534 397 2845 478 
Q 3156 559 3463 722 
L 3463 178 
Q 3153 47 2828 -22 
Q 2503 -91 2169 -91 
Q 1331 -91 842 396 
Q 353 884 353 1716 
Q 353 2575 817 3079 
Q 1281 3584 2069 3584 
Q 2775 3584 3186 3129 
Q 3597 2675 3597 1894 
z
M 3022 2063 
Q 3016 2534 2758 2815 
Q 2500 3097 2075 3097 
Q 1594 3097 1305 2825 
Q 1016 2553 972 2059 
L 3022 2063 
z
" transform="scale(0.015625)"/>
       <path id="DejaVuSans-20" transform="scale(0.015625)"/>
       <path id="DejaVuSans-74" d="M 1172 4494 
L 1172 3500 
L 2356 3500 
L 2356 3053 
L 1172 3053 
L 1172 1153 
Q 1172 725 1289 603 
Q 1406 481 1766 481 
L 2356 481 
L 2356 0 
L 1766 0 
Q 1100 0 847 248 
Q 594 497 594 1153 
L 594 3053 
L 172 3053 
L 172 3500 
L 594 3500 
L 594 4494 
L 1172 4494 
z
" transform="scale(0.015625)"/>
       <path id="DejaVuSans-72" d="M 2631 2963 
Q 2534 3019 2420 3045 
Q 2306 3072 2169 3072 
Q 1681 3072 1420 2755 
Q 1159 2438 1159 1844 
L 1159 0 
L 581 0 
L 581 3500 
L 1159 3500 
L 1159 2956 
Q 1341 3275 1631 3429 
Q 1922 3584 2338 3584 
Q 2397 3584 2469 3576 
Q 2541 3569 2628 3553 
L 2631 2963 
z
" transform="scale(0.015625)"/>
       <path id="DejaVuSans-61" d="M 2194 1759 
Q 1497 1759 1228 1600 
Q 959 1441 959 1056 
Q 959 750 1161 570 
Q 1363 391 1709 391 
Q 2188 391 2477 730 
Q 2766 1069 2766 1631 
L 2766 1759 
L 2194 1759 
z
M 3341 1997 
L 3341 0 
L 2766 0 
L 2766 531 
Q 2569 213 2275 61 
Q 1981 -91 1556 -91 
Q 1019 -91 701 211 
Q 384 513 384 1019 
Q 384 1609 779 1909 
Q 1175 2209 1959 2209 
L 2766 2209 
L 2766 2266 
Q 2766 2663 2505 2880 
Q 2244 3097 1772 3097 
Q 1472 3097 1187 3025 
Q 903 2953 641 2809 
L 641 3341 
Q 956 3463 1253 3523 
Q 1550 3584 1831 3584 
Q 2591 3584 2966 3190 
Q 3341 2797 3341 1997 
z
" transform="scale(0.015625)"/>
       <path id="DejaVuSans-67" d="M 2906 1791 
Q 2906 2416 2648 2759 
Q 2391 3103 1925 3103 
Q 1463 3103 1205 2759 
Q 947 2416 947 1791 
Q 947 1169 1205 825 
Q 1463 481 1925 481 
Q 2391 481 2648 825 
Q 2906 1169 2906 1791 
z
M 3481 434 
Q 3481 -459 3084 -895 
Q 2688 -1331 1869 -1331 
Q 1566 -1331 1297 -1286 
Q 1028 -1241 775 -1147 
L 775 -588 
Q 1028 -725 1275 -790 
Q 1522 -856 1778 -856 
Q 2344 -856 2625 -561 
Q 2906 -266 2906 331 
L 2906 616 
Q 2728 306 2450 153 
Q 2172 0 1784 0 
Q 1141 0 747 490 
Q 353 981 353 1791 
Q 353 2603 747 3093 
Q 1141 3584 1784 3584 
Q 2172 3584 2450 3431 
Q 2728 3278 2906 2969 
L 2906 3500 
L 3481 3500 
L 3481 434 
z
" transform="scale(0.015625)"/>
       <path id="DejaVuSans-73" d="M 2834 3397 
L 2834 2853 
Q 2591 2978 2328 3040 
Q 2066 3103 1784 3103 
Q 1356 3103 1142 2972 
Q 928 2841 928 2578 
Q 928 2378 1081 2264 
Q 1234 2150 1697 2047 
L 1894 2003 
Q 2506 1872 2764 1633 
Q 3022 1394 3022 966 
Q 3022 478 2636 193 
Q 2250 -91 1575 -91 
Q 1294 -91 989 -36 
Q 684 19 347 128 
L 347 722 
Q 666 556 975 473 
Q 1284 391 1588 391 
Q 1994 391 2212 530 
Q 2431 669 2431 922 
Q 2431 1156 2273 1281 
Q 2116 1406 1581 1522 
L 1381 1569 
Q 847 1681 609 1914 
Q 372 2147 372 2553 
Q 372 3047 722 3315 
Q 1072 3584 1716 3584 
Q 2034 3584 2315 3537 
Q 2597 3491 2834 3397 
z
" transform="scale(0.015625)"/>
       <path id="DejaVuSans-70" d="M 1159 525 
L 1159 -1331 
L 581 -1331 
L 581 3500 
L 1159 3500 
L 1159 2969 
Q 1341 3281 1617 3432 
Q 1894 3584 2278 3584 
Q 2916 3584 3314 3078 
Q 3713 2572 3713 1747 
Q 3713 922 3314 415 
Q 2916 -91 2278 -91 
Q 1894 -91 1617 61 
Q 1341 213 1159 525 
z
M 3116 1747 
Q 3116 2381 2855 2742 
Q 2594 3103 2138 3103 
Q 1681 3103 1420 2742 
Q 1159 2381 1159 1747 
Q 1159 1113 1420 752 
Q 1681 391 2138 391 
Q 2594 391 2855 752 
Q 3116 1113 3116 1747 
z
" transform="scale(0.015625)"/>
       <path id="DejaVuSans-28" d="M 1984 4856 
Q 1566 4138 1362 3434 
Q 1159 2731 1159 2009 
Q 1159 1288 1364 580 
Q 1569 -128 1984 -844 
L 1484 -844 
Q 1016 -109 783 600 
Q 550 1309 550 2009 
Q 550 2706 781 3412 
Q 1013 4119 1484 4856 
L 1984 4856 
z
" transform="scale(0.015625)"/>
       <path id="DejaVuSans-4b" d="M 628 4666 
L 1259 4666 
L 1259 2694 
L 3353 4666 
L 4166 4666 
L 1850 2491 
L 4331 0 
L 3500 0 
L 1259 2247 
L 1259 0 
L 628 0 
L 628 4666 
z
" transform="scale(0.015625)"/>
       <path id="DejaVuSans-29" d="M 513 4856 
L 1013 4856 
Q 1481 4119 1714 3412 
Q 1947 2706 1947 2009 
Q 1947 1309 1714 600 
Q 1481 -109 1013 -844 
L 513 -844 
Q 928 -128 1133 580 
Q 1338 1288 1338 2009 
Q 1338 2731 1133 3434 
Q 928 4138 513 4856 
z
" transform="scale(0.015625)"/>
      </defs>
      <use xlink:href="#DejaVuSans-4f"/>
      <use xlink:href="#DejaVuSans-6e" transform="translate(78.710938 0)"/>
      <use xlink:href="#DejaVuSans-6c" transform="translate(142.089844 0)"/>
      <use xlink:href="#DejaVuSans-69" transform="translate(169.873047 0)"/>
      <use xlink:href="#DejaVuSans-6e" transform="translate(197.65625 0)"/>
      <use xlink:href="#DejaVuSans-65" transform="translate(261.035156 0)"/>
      <use xlink:href="#DejaVuSans-20" transform="translate(322.558594 0)"/>
      <use xlink:href="#DejaVuSans-74" transform="translate(354.345703 0)"/>
      <use xlink:href="#DejaVuSans-72" transform="translate(393.554688 0)"/>
      <use xlink:href="#DejaVuSans-61" transform="translate(434.667969 0)"/>
      <use xlink:href="#DejaVuSans-69" transform="translate(495.947266 0)"/>
      <use xlink:href="#DejaVuSans-6e" transform="translate(523.730469 0)"/>
      <use xlink:href="#DejaVuSans-69" transform="translate(587.109375 0)"/>
      <use xlink:href="#DejaVuSans-6e" transform="translate(614.892578 0)"/>
      <use xlink:href="#DejaVuSans-67" transform="translate(678.271484 0)"/>
      <use xlink:href="#DejaVuSans-20" transform="translate(741.748047 0)"/>
      <use xlink:href="#DejaVuSans-73" transform="translate(773.535156 0)"/>
      <use xlink:href="#DejaVuSans-74" transform="translate(825.634766 0)"/>
      <use xlink:href="#DejaVuSans-65" transform="translate(864.84375 0)"/>
      <use xlink:href="#DejaVuSans-70" transform="translate(926.367188 0)"/>
      <use xlink:href="#DejaVuSans-73" transform="translate(989.84375 0)"/>
      <use xlink:href="#DejaVuSans-20" transform="translate(1041.943359 0)"/>
      <use xlink:href="#DejaVuSans-28" transform="translate(1073.730469 0)"/>
      <use xlink:href="#DejaVuSans-4b" transform="translate(1112.744141 0)"/>
      <use xlink:href="#DejaVuSans-29" transform="translate(1178.320312 0)"/>
     </g>
    </g>
   </g>
   <g id="matplotlib.axis_2">
    <g id="ytick_1">
     <g id="line2d_19">
      <path d="M 61.707813 302.453243 
L 652.982813 302.453243 
" clip-path="url(#pb45f1f3a7b)" style="fill: none; stroke-dasharray: 2.96,1.28; stroke-dashoffset: 0; stroke: #b0b0b0; stroke-opacity: 0.25; stroke-width: 0.8"/>
     </g>
     <g id="line2d_20">
      <defs>
       <path id="mc529741e71" d="M 0 0 
L -3.5 0 
" style="stroke: #000000; stroke-width: 0.8"/>
      </defs>
      <g>
       <use xlink:href="#mc529741e71" x="61.707813" y="302.453243" style="stroke: #000000; stroke-width: 0.8"/>
      </g>
     </g>
     <g id="text_11">
      <!-- −4500 -->
      <g transform="translate(20.878125 306.252462) scale(0.1 -0.1)">
       <defs>
        <path id="DejaVuSans-2212" d="M 678 2272 
L 4684 2272 
L 4684 1741 
L 678 1741 
L 678 2272 
z
" transform="scale(0.015625)"/>
        <path id="DejaVuSans-34" d="M 2419 4116 
L 825 1625 
L 2419 1625 
L 2419 4116 
z
M 2253 4666 
L 3047 4666 
L 3047 1625 
L 3713 1625 
L 3713 1100 
L 3047 1100 
L 3047 0 
L 2419 0 
L 2419 1100 
L 313 1100 
L 313 1709 
L 2253 4666 
z
" transform="scale(0.015625)"/>
       </defs>
       <use xlink:href="#DejaVuSans-2212"/>
       <use xlink:href="#DejaVuSans-34" transform="translate(83.789062 0)"/>
       <use xlink:href="#DejaVuSans-35" transform="translate(147.412109 0)"/>
       <use xlink:href="#DejaVuSans-30" transform="translate(211.035156 0)"/>
       <use xlink:href="#DejaVuSans-30" transform="translate(274.658203 0)"/>
      </g>
     </g>
    </g>
    <g id="ytick_2">
     <g id="line2d_21">
      <path d="M 61.707813 250.322429 
L 652.982813 250.322429 
" clip-path="url(#pb45f1f3a7b)" style="fill: none; stroke-dasharray: 2.96,1.28; stroke-dashoffset: 0; stroke: #b0b0b0; stroke-opacity: 0.25; stroke-width: 0.8"/>
     </g>
     <g id="line2d_22">
      <g>
       <use xlink:href="#mc529741e71" x="61.707813" y="250.322429" style="stroke: #000000; stroke-width: 0.8"/>
      </g>
     </g>
     <g id="text_12">
      <!-- −4000 -->
      <g transform="translate(20.878125 254.121647) scale(0.1 -0.1)">
       <use xlink:href="#DejaVuSans-2212"/>
       <use xlink:href="#DejaVuSans-34" transform="translate(83.789062 0)"/>
       <use xlink:href="#DejaVuSans-30" transform="translate(147.412109 0)"/>
       <use xlink:href="#DejaVuSans-30" transform="translate(211.035156 0)"/>
       <use xlink:href="#DejaVuSans-30" transform="translate(274.658203 0)"/>
      </g>
     </g>
    </g>
    <g id="ytick_3">
     <g id="line2d_23">
      <path d="M 61.707813 198.191614 
L 652.982813 198.191614 
" clip-path="url(#pb45f1f3a7b)" style="fill: none; stroke-dasharray: 2.96,1.28; stroke-dashoffset: 0; stroke: #b0b0b0; stroke-opacity: 0.25; stroke-width: 0.8"/>
     </g>
     <g id="line2d_24">
      <g>
       <use xlink:href="#mc529741e71" x="61.707813" y="198.191614" style="stroke: #000000; stroke-width: 0.8"/>
      </g>
     </g>
     <g id="text_13">
      <!-- −3500 -->
      <g transform="translate(20.878125 201.990833) scale(0.1 -0.1)">
       <defs>
        <path id="DejaVuSans-33" d="M 2597 2516 
Q 3050 2419 3304 2112 
Q 3559 1806 3559 1356 
Q 3559 666 3084 287 
Q 2609 -91 1734 -91 
Q 1441 -91 1130 -33 
Q 819 25 488 141 
L 488 750 
Q 750 597 1062 519 
Q 1375 441 1716 441 
Q 2309 441 2620 675 
Q 2931 909 2931 1356 
Q 2931 1769 2642 2001 
Q 2353 2234 1838 2234 
L 1294 2234 
L 1294 2753 
L 1863 2753 
Q 2328 2753 2575 2939 
Q 2822 3125 2822 3475 
Q 2822 3834 2567 4026 
Q 2313 4219 1838 4219 
Q 1578 4219 1281 4162 
Q 984 4106 628 3988 
L 628 4550 
Q 988 4650 1302 4700 
Q 1616 4750 1894 4750 
Q 2613 4750 3031 4423 
Q 3450 4097 3450 3541 
Q 3450 3153 3228 2886 
Q 3006 2619 2597 2516 
z
" transform="scale(0.015625)"/>
       </defs>
       <use xlink:href="#DejaVuSans-2212"/>
       <use xlink:href="#DejaVuSans-33" transform="translate(83.789062 0)"/>
       <use xlink:href="#DejaVuSans-35" transform="translate(147.412109 0)"/>
       <use xlink:href="#DejaVuSans-30" transform="translate(211.035156 0)"/>
       <use xlink:href="#DejaVuSans-30" transform="translate(274.658203 0)"/>
      </g>
     </g>
    </g>
    <g id="ytick_4">
     <g id="line2d_25">
      <path d="M 61.707813 146.060799 
L 652.982813 146.060799 
" clip-path="url(#pb45f1f3a7b)" style="fill: none; stroke-dasharray: 2.96,1.28; stroke-dashoffset: 0; stroke: #b0b0b0; stroke-opacity: 0.25; stroke-width: 0.8"/>
     </g>
     <g id="line2d_26">
      <g>
       <use xlink:href="#mc529741e71" x="61.707813" y="146.060799" style="stroke: #000000; stroke-width: 0.8"/>
      </g>
     </g>
     <g id="text_14">
      <!-- −3000 -->
      <g transform="translate(20.878125 149.860018) scale(0.1 -0.1)">
       <use xlink:href="#DejaVuSans-2212"/>
       <use xlink:href="#DejaVuSans-33" transform="translate(83.789062 0)"/>
       <use xlink:href="#DejaVuSans-30" transform="translate(147.412109 0)"/>
       <use xlink:href="#DejaVuSans-30" transform="translate(211.035156 0)"/>
       <use xlink:href="#DejaVuSans-30" transform="translate(274.658203 0)"/>
      </g>
     </g>
    </g>
    <g id="ytick_5">
     <g id="line2d_27">
      <path d="M 61.707813 93.929985 
L 652.982813 93.929985 
" clip-path="url(#pb45f1f3a7b)" style="fill: none; stroke-dasharray: 2.96,1.28; stroke-dashoffset: 0; stroke: #b0b0b0; stroke-opacity: 0.25; stroke-width: 0.8"/>
     </g>
     <g id="line2d_28">
      <g>
       <use xlink:href="#mc529741e71" x="61.707813" y="93.929985" style="stroke: #000000; stroke-width: 0.8"/>
      </g>
     </g>
     <g id="text_15">
      <!-- −2500 -->
      <g transform="translate(20.878125 97.729204) scale(0.1 -0.1)">
       <use xlink:href="#DejaVuSans-2212"/>
       <use xlink:href="#DejaVuSans-32" transform="translate(83.789062 0)"/>
       <use xlink:href="#DejaVuSans-35" transform="translate(147.412109 0)"/>
       <use xlink:href="#DejaVuSans-30" transform="translate(211.035156 0)"/>
       <use xlink:href="#DejaVuSans-30" transform="translate(274.658203 0)"/>
      </g>
     </g>
    </g>
    <g id="ytick_6">
     <g id="line2d_29">
      <path d="M 61.707813 41.79917 
L 652.982813 41.79917 
" clip-path="url(#pb45f1f3a7b)" style="fill: none; stroke-dasharray: 2.96,1.28; stroke-dashoffset: 0; stroke: #b0b0b0; stroke-opacity: 0.25; stroke-width: 0.8"/>
     </g>
     <g id="line2d_30">
      <g>
       <use xlink:href="#mc529741e71" x="61.707813" y="41.79917" style="stroke: #000000; stroke-width: 0.8"/>
      </g>
     </g>
     <g id="text_16">
      <!-- −2000 -->
      <g transform="translate(20.878125 45.598389) scale(0.1 -0.1)">
       <use xlink:href="#DejaVuSans-2212"/>
       <use xlink:href="#DejaVuSans-32" transform="translate(83.789062 0)"/>
       <use xlink:href="#DejaVuSans-30" transform="translate(147.412109 0)"/>
       <use xlink:href="#DejaVuSans-30" transform="translate(211.035156 0)"/>
       <use xlink:href="#DejaVuSans-30" transform="translate(274.658203 0)"/>
      </g>
     </g>
    </g>
    <g id="text_17">
     <!-- Evaluation mean reward (higher is better) -->
     <g transform="translate(14.798438 277.47125) rotate(-90) scale(0.1 -0.1)">
      <defs>
       <path id="DejaVuSans-45" d="M 628 4666 
L 3578 4666 
L 3578 4134 
L 1259 4134 
L 1259 2753 
L 3481 2753 
L 3481 2222 
L 1259 2222 
L 1259 531 
L 3634 531 
L 3634 0 
L 628 0 
L 628 4666 
z
" transform="scale(0.015625)"/>
       <path id="DejaVuSans-76" d="M 191 3500 
L 800 3500 
L 1894 563 
L 2988 3500 
L 3597 3500 
L 2284 0 
L 1503 0 
L 191 3500 
z
" transform="scale(0.015625)"/>
       <path id="DejaVuSans-75" d="M 544 1381 
L 544 3500 
L 1119 3500 
L 1119 1403 
Q 1119 906 1312 657 
Q 1506 409 1894 409 
Q 2359 409 2629 706 
Q 2900 1003 2900 1516 
L 2900 3500 
L 3475 3500 
L 3475 0 
L 2900 0 
L 2900 538 
Q 2691 219 2414 64 
Q 2138 -91 1772 -91 
Q 1169 -91 856 284 
Q 544 659 544 1381 
z
M 1991 3584 
L 1991 3584 
z
" transform="scale(0.015625)"/>
       <path id="DejaVuSans-6f" d="M 1959 3097 
Q 1497 3097 1228 2736 
Q 959 2375 959 1747 
Q 959 1119 1226 758 
Q 1494 397 1959 397 
Q 2419 397 2687 759 
Q 2956 1122 2956 1747 
Q 2956 2369 2687 2733 
Q 2419 3097 1959 3097 
z
M 1959 3584 
Q 2709 3584 3137 3096 
Q 3566 2609 3566 1747 
Q 3566 888 3137 398 
Q 2709 -91 1959 -91 
Q 1206 -91 779 398 
Q 353 888 353 1747 
Q 353 2609 779 3096 
Q 1206 3584 1959 3584 
z
" transform="scale(0.015625)"/>
       <path id="DejaVuSans-6d" d="M 3328 2828 
Q 3544 3216 3844 3400 
Q 4144 3584 4550 3584 
Q 5097 3584 5394 3201 
Q 5691 2819 5691 2113 
L 5691 0 
L 5113 0 
L 5113 2094 
Q 5113 2597 4934 2840 
Q 4756 3084 4391 3084 
Q 3944 3084 3684 2787 
Q 3425 2491 3425 1978 
L 3425 0 
L 2847 0 
L 2847 2094 
Q 2847 2600 2669 2842 
Q 2491 3084 2119 3084 
Q 1678 3084 1418 2786 
Q 1159 2488 1159 1978 
L 1159 0 
L 581 0 
L 581 3500 
L 1159 3500 
L 1159 2956 
Q 1356 3278 1631 3431 
Q 1906 3584 2284 3584 
Q 2666 3584 2933 3390 
Q 3200 3197 3328 2828 
z
" transform="scale(0.015625)"/>
       <path id="DejaVuSans-77" d="M 269 3500 
L 844 3500 
L 1563 769 
L 2278 3500 
L 2956 3500 
L 3675 769 
L 4391 3500 
L 4966 3500 
L 4050 0 
L 3372 0 
L 2619 2869 
L 1863 0 
L 1184 0 
L 269 3500 
z
" transform="scale(0.015625)"/>
       <path id="DejaVuSans-64" d="M 2906 2969 
L 2906 4863 
L 3481 4863 
L 3481 0 
L 2906 0 
L 2906 525 
Q 2725 213 2448 61 
Q 2172 -91 1784 -91 
Q 1150 -91 751 415 
Q 353 922 353 1747 
Q 353 2572 751 3078 
Q 1150 3584 1784 3584 
Q 2172 3584 2448 3432 
Q 2725 3281 2906 2969 
z
M 947 1747 
Q 947 1113 1208 752 
Q 1469 391 1925 391 
Q 2381 391 2643 752 
Q 2906 1113 2906 1747 
Q 2906 2381 2643 2742 
Q 2381 3103 1925 3103 
Q 1469 3103 1208 2742 
Q 947 2381 947 1747 
z
" transform="scale(0.015625)"/>
       <path id="DejaVuSans-68" d="M 3513 2113 
L 3513 0 
L 2938 0 
L 2938 2094 
Q 2938 2591 2744 2837 
Q 2550 3084 2163 3084 
Q 1697 3084 1428 2787 
Q 1159 2491 1159 1978 
L 1159 0 
L 581 0 
L 581 4863 
L 1159 4863 
L 1159 2956 
Q 1366 3272 1645 3428 
Q 1925 3584 2291 3584 
Q 2894 3584 3203 3211 
Q 3513 2838 3513 2113 
z
" transform="scale(0.015625)"/>
       <path id="DejaVuSans-62" d="M 3116 1747 
Q 3116 2381 2855 2742 
Q 2594 3103 2138 3103 
Q 1681 3103 1420 2742 
Q 1159 2381 1159 1747 
Q 1159 1113 1420 752 
Q 1681 391 2138 391 
Q 2594 391 2855 752 
Q 3116 1113 3116 1747 
z
M 1159 2969 
Q 1341 3281 1617 3432 
Q 1894 3584 2278 3584 
Q 2916 3584 3314 3078 
Q 3713 2572 3713 1747 
Q 3713 922 3314 415 
Q 2916 -91 2278 -91 
Q 1894 -91 1617 61 
Q 1341 213 1159 525 
L 1159 0 
L 581 0 
L 581 4863 
L 1159 4863 
L 1159 2969 
z
" transform="scale(0.015625)"/>
      </defs>
      <use xlink:href="#DejaVuSans-45"/>
      <use xlink:href="#DejaVuSans-76" transform="translate(63.183594 0)"/>
      <use xlink:href="#DejaVuSans-61" transform="translate(122.363281 0)"/>
      <use xlink:href="#DejaVuSans-6c" transform="translate(183.642578 0)"/>
      <use xlink:href="#DejaVuSans-75" transform="translate(211.425781 0)"/>
      <use xlink:href="#DejaVuSans-61" transform="translate(274.804688 0)"/>
      <use xlink:href="#DejaVuSans-74" transform="translate(336.083984 0)"/>
      <use xlink:href="#DejaVuSans-69" transform="translate(375.292969 0)"/>
      <use xlink:href="#DejaVuSans-6f" transform="translate(403.076172 0)"/>
      <use xlink:href="#DejaVuSans-6e" transform="translate(464.257812 0)"/>
      <use xlink:href="#DejaVuSans-20" transform="translate(527.636719 0)"/>
      <use xlink:href="#DejaVuSans-6d" transform="translate(559.423828 0)"/>
      <use xlink:href="#DejaVuSans-65" transform="translate(656.835938 0)"/>
      <use xlink:href="#DejaVuSans-61" transform="translate(718.359375 0)"/>
      <use xlink:href="#DejaVuSans-6e" transform="translate(779.638672 0)"/>
      <use xlink:href="#DejaVuSans-20" transform="translate(843.017578 0)"/>
      <use xlink:href="#DejaVuSans-72" transform="translate(874.804688 0)"/>
      <use xlink:href="#DejaVuSans-65" transform="translate(913.667969 0)"/>
      <use xlink:href="#DejaVuSans-77" transform="translate(975.191406 0)"/>
      <use xlink:href="#DejaVuSans-61" transform="translate(1056.978516 0)"/>
      <use xlink:href="#DejaVuSans-72" transform="translate(1118.257812 0)"/>
      <use xlink:href="#DejaVuSans-64" transform="translate(1157.621094 0)"/>
      <use xlink:href="#DejaVuSans-20" transform="translate(1221.097656 0)"/>
      <use xlink:href="#DejaVuSans-28" transform="translate(1252.884766 0)"/>
      <use xlink:href="#DejaVuSans-68" transform="translate(1291.898438 0)"/>
      <use xlink:href="#DejaVuSans-69" transform="translate(1355.277344 0)"/>
      <use xlink:href="#DejaVuSans-67" transform="translate(1383.060547 0)"/>
      <use xlink:href="#DejaVuSans-68" transform="translate(1446.537109 0)"/>
      <use xlink:href="#DejaVuSans-65" transform="translate(1509.916016 0)"/>
      <use xlink:href="#DejaVuSans-72" transform="translate(1571.439453 0)"/>
      <use xlink:href="#DejaVuSans-20" transform="translate(1612.552734 0)"/>
      <use xlink:href="#DejaVuSans-69" transform="translate(1644.339844 0)"/>
      <use xlink:href="#DejaVuSans-73" transform="translate(1672.123047 0)"/>
      <use xlink:href="#DejaVuSans-20" transform="translate(1724.222656 0)"/>
      <use xlink:href="#DejaVuSans-62" transform="translate(1756.009766 0)"/>
      <use xlink:href="#DejaVuSans-65" transform="translate(1819.486328 0)"/>
      <use xlink:href="#DejaVuSans-74" transform="translate(1881.009766 0)"/>
      <use xlink:href="#DejaVuSans-74" transform="translate(1920.21875 0)"/>
      <use xlink:href="#DejaVuSans-65" transform="translate(1959.427734 0)"/>
      <use xlink:href="#DejaVuSans-72" transform="translate(2020.951172 0)"/>
      <use xlink:href="#DejaVuSans-29" transform="translate(2062.064453 0)"/>
     </g>
    </g>
   </g>
   <g id="line2d_31">
    <path d="M 91.271563 194.48057 
L 120.835313 193.389651 
L 150.399063 132.768585 
L 179.962813 128.284536 
L 209.526563 117.876848 
L 239.090313 170.545849 
L 268.654063 121.675597 
L 298.217813 177.706646 
L 327.781563 106.412641 
L 357.345313 105.27118 
L 386.909063 106.446386 
L 416.472813 86.741156 
L 446.036563 80.961927 
L 475.600313 72.068223 
L 505.164063 80.88025 
L 534.727813 49.792486 
L 564.291563 79.880829 
L 593.855313 72.404371 
L 623.419063 63.044033 
L 652.982813 74.788884 
" clip-path="url(#pb45f1f3a7b)" style="fill: none; stroke: #1f77b4; stroke-width: 2.2; stroke-linecap: square"/>
    <defs>
     <path id="m05efbfaa8d" d="M 0 1.9 
C 0.503886 1.9 0.987202 1.699804 1.343503 1.343503 
C 1.699804 0.987202 1.9 0.503886 1.9 0 
C 1.9 -0.503886 1.699804 -0.987202 1.343503 -1.343503 
C 0.987202 -1.699804 0.503886 -1.9 0 -1.9 
C -0.503886 -1.9 -0.987202 -1.699804 -1.343503 -1.343503 
C -1.699804 -0.987202 -1.9 -0.503886 -1.9 0 
C -1.9 0.503886 -1.699804 0.987202 -1.343503 1.343503 
C -0.987202 1.699804 -0.503886 1.9 0 1.9 
z
" style="stroke: #1f77b4"/>
    </defs>
    <g clip-path="url(#pb45f1f3a7b)">
     <use xlink:href="#m05efbfaa8d" x="91.271563" y="194.48057" style="fill: #1f77b4; stroke: #1f77b4"/>
     <use xlink:href="#m05efbfaa8d" x="120.835313" y="193.389651" style="fill: #1f77b4; stroke: #1f77b4"/>
     <use xlink:href="#m05efbfaa8d" x="150.399063" y="132.768585" style="fill: #1f77b4; stroke: #1f77b4"/>
     <use xlink:href="#m05efbfaa8d" x="179.962813" y="128.284536" style="fill: #1f77b4; stroke: #1f77b4"/>
     <use xlink:href="#m05efbfaa8d" x="209.526563" y="117.876848" style="fill: #1f77b4; stroke: #1f77b4"/>
     <use xlink:href="#m05efbfaa8d" x="239.090313" y="170.545849" style="fill: #1f77b4; stroke: #1f77b4"/>
     <use xlink:href="#m05efbfaa8d" x="268.654063" y="121.675597" style="fill: #1f77b4; stroke: #1f77b4"/>
     <use xlink:href="#m05efbfaa8d" x="298.217813" y="177.706646" style="fill: #1f77b4; stroke: #1f77b4"/>
     <use xlink:href="#m05efbfaa8d" x="327.781563" y="106.412641" style="fill: #1f77b4; stroke: #1f77b4"/>
     <use xlink:href="#m05efbfaa8d" x="357.345313" y="105.27118" style="fill: #1f77b4; stroke: #1f77b4"/>
     <use xlink:href="#m05efbfaa8d" x="386.909063" y="106.446386" style="fill: #1f77b4; stroke: #1f77b4"/>
     <use xlink:href="#m05efbfaa8d" x="416.472813" y="86.741156" style="fill: #1f77b4; stroke: #1f77b4"/>
     <use xlink:href="#m05efbfaa8d" x="446.036563" y="80.961927" style="fill: #1f77b4; stroke: #1f77b4"/>
     <use xlink:href="#m05efbfaa8d" x="475.600313" y="72.068223" style="fill: #1f77b4; stroke: #1f77b4"/>
     <use xlink:href="#m05efbfaa8d" x="505.164063" y="80.88025" style="fill: #1f77b4; stroke: #1f77b4"/>
     <use xlink:href="#m05efbfaa8d" x="534.727813" y="49.792486" style="fill: #1f77b4; stroke: #1f77b4"/>
     <use xlink:href="#m05efbfaa8d" x="564.291563" y="79.880829" style="fill: #1f77b4; stroke: #1f77b4"/>
     <use xlink:href="#m05efbfaa8d" x="593.855313" y="72.404371" style="fill: #1f77b4; stroke: #1f77b4"/>
     <use xlink:href="#m05efbfaa8d" x="623.419063" y="63.044033" style="fill: #1f77b4; stroke: #1f77b4"/>
     <use xlink:href="#m05efbfaa8d" x="652.982813" y="74.788884" style="fill: #1f77b4; stroke: #1f77b4"/>
    </g>
   </g>
   <g id="line2d_32">
    <path d="M 209.526563 126.448221 
L 357.345313 96.233962 
L 505.164063 71.834212 
L 652.982813 58.503404 
" clip-path="url(#pb45f1f3a7b)" style="fill: none; stroke: #2ca02c; stroke-width: 1.9; stroke-linecap: square"/>
    <defs>
     <path id="m1a48f3f750" d="M -2.4 2.4 
L 2.4 2.4 
L 2.4 -2.4 
L -2.4 -2.4 
z
" style="stroke: #2ca02c; stroke-linejoin: miter"/>
    </defs>
    <g clip-path="url(#pb45f1f3a7b)">
     <use xlink:href="#m1a48f3f750" x="209.526563" y="126.448221" style="fill: #2ca02c; stroke: #2ca02c; stroke-linejoin: miter"/>
     <use xlink:href="#m1a48f3f750" x="357.345313" y="96.233962" style="fill: #2ca02c; stroke: #2ca02c; stroke-linejoin: miter"/>
     <use xlink:href="#m1a48f3f750" x="505.164063" y="71.834212" style="fill: #2ca02c; stroke: #2ca02c; stroke-linejoin: miter"/>
     <use xlink:href="#m1a48f3f750" x="652.982813" y="58.503404" style="fill: #2ca02c; stroke: #2ca02c; stroke-linejoin: miter"/>
    </g>
   </g>
   <g id="line2d_33">
    <path d="M 209.526563 97.565223 
L 357.345313 109.624822 
L 505.164063 53.795594 
L 652.982813 65.549892 
" clip-path="url(#pb45f1f3a7b)" style="fill: none; stroke: #ff7f0e; stroke-width: 1.9; stroke-linecap: square"/>
    <defs>
     <path id="maa80d36f61" d="M 0 -2.4 
L -2.4 2.4 
L 2.4 2.4 
z
" style="stroke: #ff7f0e; stroke-linejoin: miter"/>
    </defs>
    <g clip-path="url(#pb45f1f3a7b)">
     <use xlink:href="#maa80d36f61" x="209.526563" y="97.565223" style="fill: #ff7f0e; stroke: #ff7f0e; stroke-linejoin: miter"/>
     <use xlink:href="#maa80d36f61" x="357.345313" y="109.624822" style="fill: #ff7f0e; stroke: #ff7f0e; stroke-linejoin: miter"/>
     <use xlink:href="#maa80d36f61" x="505.164063" y="53.795594" style="fill: #ff7f0e; stroke: #ff7f0e; stroke-linejoin: miter"/>
     <use xlink:href="#maa80d36f61" x="652.982813" y="65.549892" style="fill: #ff7f0e; stroke: #ff7f0e; stroke-linejoin: miter"/>
    </g>
   </g>
   <g id="line2d_34">
    <path d="M 209.526563 151.545748 
L 357.345313 107.189467 
L 505.164063 74.741752 
L 652.982813 113.840437 
" clip-path="url(#pb45f1f3a7b)" style="fill: none; stroke: #9467bd; stroke-width: 1.9; stroke-linecap: square"/>
    <defs>
     <path id="mf70d540eb2" d="M 0 3.394113 
L 3.394113 0 
L 0 -3.394113 
L -3.394113 0 
z
" style="stroke: #9467bd; stroke-linejoin: miter"/>
    </defs>
    <g clip-path="url(#pb45f1f3a7b)">
     <use xlink:href="#mf70d540eb2" x="209.526563" y="151.545748" style="fill: #9467bd; stroke: #9467bd; stroke-linejoin: miter"/>
     <use xlink:href="#mf70d540eb2" x="357.345313" y="107.189467" style="fill: #9467bd; stroke: #9467bd; stroke-linejoin: miter"/>
     <use xlink:href="#mf70d540eb2" x="505.164063" y="74.741752" style="fill: #9467bd; stroke: #9467bd; stroke-linejoin: miter"/>
     <use xlink:href="#mf70d540eb2" x="652.982813" y="113.840437" style="fill: #9467bd; stroke: #9467bd; stroke-linejoin: miter"/>
    </g>
   </g>
   <g id="line2d_35">
    <path d="M 209.526563 103.242442 
L 357.345313 81.578485 
L 505.164063 92.064375 
L 652.982813 59.005243 
" clip-path="url(#pb45f1f3a7b)" style="fill: none; stroke: #8c564b; stroke-width: 1.9; stroke-linecap: square"/>
    <defs>
     <path id="m7383efbcf4" d="M -0 2.4 
L 2.4 -2.4 
L -2.4 -2.4 
z
" style="stroke: #8c564b; stroke-linejoin: miter"/>
    </defs>
    <g clip-path="url(#pb45f1f3a7b)">
     <use xlink:href="#m7383efbcf4" x="209.526563" y="103.242442" style="fill: #8c564b; stroke: #8c564b; stroke-linejoin: miter"/>
     <use xlink:href="#m7383efbcf4" x="357.345313" y="81.578485" style="fill: #8c564b; stroke: #8c564b; stroke-linejoin: miter"/>
     <use xlink:href="#m7383efbcf4" x="505.164063" y="92.064375" style="fill: #8c564b; stroke: #8c564b; stroke-linejoin: miter"/>
     <use xlink:href="#m7383efbcf4" x="652.982813" y="59.005243" style="fill: #8c564b; stroke: #8c564b; stroke-linejoin: miter"/>
    </g>
   </g>
   <g id="line2d_36">
    <path d="M 61.707813 308.87267 
L 652.982813 308.87267 
" clip-path="url(#pb45f1f3a7b)" style="fill: none; stroke-dasharray: 5.92,2.56; stroke-dashoffset: 0; stroke: #7f7f7f; stroke-width: 1.6"/>
   </g>
   <g id="patch_3">
    <path d="M 61.707813 322.518125 
L 61.707813 22.318125 
" style="fill: none; stroke: #000000; stroke-width: 0.8; stroke-linejoin: miter; stroke-linecap: square"/>
   </g>
   <g id="patch_4">
    <path d="M 61.707813 322.518125 
L 652.982813 322.518125 
" style="fill: none; stroke: #000000; stroke-width: 0.8; stroke-linejoin: miter; stroke-linecap: square"/>
   </g>
   <g id="text_18">
    <!-- Reward Training Curves on Bias Split (0-200K) -->
    <g transform="translate(219.645313 16.318125) scale(0.12 -0.12)">
     <defs>
      <path id="DejaVuSans-52" d="M 2841 2188 
Q 3044 2119 3236 1894 
Q 3428 1669 3622 1275 
L 4263 0 
L 3584 0 
L 2988 1197 
Q 2756 1666 2539 1819 
Q 2322 1972 1947 1972 
L 1259 1972 
L 1259 0 
L 628 0 
L 628 4666 
L 2053 4666 
Q 2853 4666 3247 4331 
Q 3641 3997 3641 3322 
Q 3641 2881 3436 2590 
Q 3231 2300 2841 2188 
z
M 1259 4147 
L 1259 2491 
L 2053 2491 
Q 2509 2491 2742 2702 
Q 2975 2913 2975 3322 
Q 2975 3731 2742 3939 
Q 2509 4147 2053 4147 
L 1259 4147 
z
" transform="scale(0.015625)"/>
      <path id="DejaVuSans-54" d="M -19 4666 
L 3928 4666 
L 3928 4134 
L 2272 4134 
L 2272 0 
L 1638 0 
L 1638 4134 
L -19 4134 
L -19 4666 
z
" transform="scale(0.015625)"/>
      <path id="DejaVuSans-43" d="M 4122 4306 
L 4122 3641 
Q 3803 3938 3442 4084 
Q 3081 4231 2675 4231 
Q 1875 4231 1450 3742 
Q 1025 3253 1025 2328 
Q 1025 1406 1450 917 
Q 1875 428 2675 428 
Q 3081 428 3442 575 
Q 3803 722 4122 1019 
L 4122 359 
Q 3791 134 3420 21 
Q 3050 -91 2638 -91 
Q 1578 -91 968 557 
Q 359 1206 359 2328 
Q 359 3453 968 4101 
Q 1578 4750 2638 4750 
Q 3056 4750 3426 4639 
Q 3797 4528 4122 4306 
z
" transform="scale(0.015625)"/>
      <path id="DejaVuSans-42" d="M 1259 2228 
L 1259 519 
L 2272 519 
Q 2781 519 3026 730 
Q 3272 941 3272 1375 
Q 3272 1813 3026 2020 
Q 2781 2228 2272 2228 
L 1259 2228 
z
M 1259 4147 
L 1259 2741 
L 2194 2741 
Q 2656 2741 2882 2914 
Q 3109 3088 3109 3444 
Q 3109 3797 2882 3972 
Q 2656 4147 2194 4147 
L 1259 4147 
z
M 628 4666 
L 2241 4666 
Q 2963 4666 3353 4366 
Q 3744 4066 3744 3513 
Q 3744 3084 3544 2831 
Q 3344 2578 2956 2516 
Q 3422 2416 3680 2098 
Q 3938 1781 3938 1306 
Q 3938 681 3513 340 
Q 3088 0 2303 0 
L 628 0 
L 628 4666 
z
" transform="scale(0.015625)"/>
      <path id="DejaVuSans-53" d="M 3425 4513 
L 3425 3897 
Q 3066 4069 2747 4153 
Q 2428 4238 2131 4238 
Q 1616 4238 1336 4038 
Q 1056 3838 1056 3469 
Q 1056 3159 1242 3001 
Q 1428 2844 1947 2747 
L 2328 2669 
Q 3034 2534 3370 2195 
Q 3706 1856 3706 1288 
Q 3706 609 3251 259 
Q 2797 -91 1919 -91 
Q 1588 -91 1214 -16 
Q 841 59 441 206 
L 441 856 
Q 825 641 1194 531 
Q 1563 422 1919 422 
Q 2459 422 2753 634 
Q 3047 847 3047 1241 
Q 3047 1584 2836 1778 
Q 2625 1972 2144 2069 
L 1759 2144 
Q 1053 2284 737 2584 
Q 422 2884 422 3419 
Q 422 4038 858 4394 
Q 1294 4750 2059 4750 
Q 2388 4750 2728 4690 
Q 3069 4631 3425 4513 
z
" transform="scale(0.015625)"/>
      <path id="DejaVuSans-2d" d="M 313 2009 
L 1997 2009 
L 1997 1497 
L 313 1497 
L 313 2009 
z
" transform="scale(0.015625)"/>
     </defs>
     <use xlink:href="#DejaVuSans-52"/>
     <use xlink:href="#DejaVuSans-65" transform="translate(64.982422 0)"/>
     <use xlink:href="#DejaVuSans-77" transform="translate(126.505859 0)"/>
     <use xlink:href="#DejaVuSans-61" transform="translate(208.292969 0)"/>
     <use xlink:href="#DejaVuSans-72" transform="translate(269.572266 0)"/>
     <use xlink:href="#DejaVuSans-64" transform="translate(308.935547 0)"/>
     <use xlink:href="#DejaVuSans-20" transform="translate(372.412109 0)"/>
     <use xlink:href="#DejaVuSans-54" transform="translate(404.199219 0)"/>
     <use xlink:href="#DejaVuSans-72" transform="translate(450.533203 0)"/>
     <use xlink:href="#DejaVuSans-61" transform="translate(491.646484 0)"/>
     <use xlink:href="#DejaVuSans-69" transform="translate(552.925781 0)"/>
     <use xlink:href="#DejaVuSans-6e" transform="translate(580.708984 0)"/>
     <use xlink:href="#DejaVuSans-69" transform="translate(644.087891 0)"/>
     <use xlink:href="#DejaVuSans-6e" transform="translate(671.871094 0)"/>
     <use xlink:href="#DejaVuSans-67" transform="translate(735.25 0)"/>
     <use xlink:href="#DejaVuSans-20" transform="translate(798.726562 0)"/>
     <use xlink:href="#DejaVuSans-43" transform="translate(830.513672 0)"/>
     <use xlink:href="#DejaVuSans-75" transform="translate(900.337891 0)"/>
     <use xlink:href="#DejaVuSans-72" transform="translate(963.716797 0)"/>
     <use xlink:href="#DejaVuSans-76" transform="translate(1004.830078 0)"/>
     <use xlink:href="#DejaVuSans-65" transform="translate(1064.009766 0)"/>
     <use xlink:href="#DejaVuSans-73" transform="translate(1125.533203 0)"/>
     <use xlink:href="#DejaVuSans-20" transform="translate(1177.632812 0)"/>
     <use xlink:href="#DejaVuSans-6f" transform="translate(1209.419922 0)"/>
     <use xlink:href="#DejaVuSans-6e" transform="translate(1270.601562 0)"/>
     <use xlink:href="#DejaVuSans-20" transform="translate(1333.980469 0)"/>
     <use xlink:href="#DejaVuSans-42" transform="translate(1365.767578 0)"/>
     <use xlink:href="#DejaVuSans-69" transform="translate(1434.371094 0)"/>
     <use xlink:href="#DejaVuSans-61" transform="translate(1462.154297 0)"/>
     <use xlink:href="#DejaVuSans-73" transform="translate(1523.433594 0)"/>
     <use xlink:href="#DejaVuSans-20" transform="translate(1575.533203 0)"/>
     <use xlink:href="#DejaVuSans-53" transform="translate(1607.320312 0)"/>
     <use xlink:href="#DejaVuSans-70" transform="translate(1670.796875 0)"/>
     <use xlink:href="#DejaVuSans-6c" transform="translate(1734.273438 0)"/>
     <use xlink:href="#DejaVuSans-69" transform="translate(1762.056641 0)"/>
     <use xlink:href="#DejaVuSans-74" transform="translate(1789.839844 0)"/>
     <use xlink:href="#DejaVuSans-20" transform="translate(1829.048828 0)"/>
     <use xlink:href="#DejaVuSans-28" transform="translate(1860.835938 0)"/>
     <use xlink:href="#DejaVuSans-30" transform="translate(1899.849609 0)"/>
     <use xlink:href="#DejaVuSans-2d" transform="translate(1963.472656 0)"/>
     <use xlink:href="#DejaVuSans-32" transform="translate(1999.556641 0)"/>
     <use xlink:href="#DejaVuSans-30" transform="translate(2063.179688 0)"/>
     <use xlink:href="#DejaVuSans-30" transform="translate(2126.802734 0)"/>
     <use xlink:href="#DejaVuSans-4b" transform="translate(2190.425781 0)"/>
     <use xlink:href="#DejaVuSans-29" transform="translate(2256.001953 0)"/>
    </g>
   </g>
   <g id="legend_1">
    <g id="line2d_37">
     <path d="M 69.807813 282.975781 
L 78.807813 282.975781 
L 87.807813 282.975781 
" style="fill: none; stroke: #1f77b4; stroke-width: 2.2; stroke-linecap: square"/>
     <g>
      <use xlink:href="#m05efbfaa8d" x="78.807813" y="282.975781" style="fill: #1f77b4; stroke: #1f77b4"/>
     </g>
    </g>
    <g id="text_19">
     <!-- Full O2O-IQL -->
     <g transform="translate(95.007813 286.125781) scale(0.09 -0.09)">
      <defs>
       <path id="DejaVuSans-46" d="M 628 4666 
L 3309 4666 
L 3309 4134 
L 1259 4134 
L 1259 2759 
L 3109 2759 
L 3109 2228 
L 1259 2228 
L 1259 0 
L 628 0 
L 628 4666 
z
" transform="scale(0.015625)"/>
       <path id="DejaVuSans-49" d="M 628 4666 
L 1259 4666 
L 1259 0 
L 628 0 
L 628 4666 
z
" transform="scale(0.015625)"/>
       <path id="DejaVuSans-51" d="M 2522 4238 
Q 1834 4238 1429 3725 
Q 1025 3213 1025 2328 
Q 1025 1447 1429 934 
Q 1834 422 2522 422 
Q 3209 422 3611 934 
Q 4013 1447 4013 2328 
Q 4013 3213 3611 3725 
Q 3209 4238 2522 4238 
z
M 3406 84 
L 4238 -825 
L 3475 -825 
L 2784 -78 
Q 2681 -84 2626 -87 
Q 2572 -91 2522 -91 
Q 1538 -91 948 567 
Q 359 1225 359 2328 
Q 359 3434 948 4092 
Q 1538 4750 2522 4750 
Q 3503 4750 4090 4092 
Q 4678 3434 4678 2328 
Q 4678 1516 4351 937 
Q 4025 359 3406 84 
z
" transform="scale(0.015625)"/>
       <path id="DejaVuSans-4c" d="M 628 4666 
L 1259 4666 
L 1259 531 
L 3531 531 
L 3531 0 
L 628 0 
L 628 4666 
z
" transform="scale(0.015625)"/>
      </defs>
      <use xlink:href="#DejaVuSans-46"/>
      <use xlink:href="#DejaVuSans-75" transform="translate(52.019531 0)"/>
      <use xlink:href="#DejaVuSans-6c" transform="translate(115.398438 0)"/>
      <use xlink:href="#DejaVuSans-6c" transform="translate(143.181641 0)"/>
      <use xlink:href="#DejaVuSans-20" transform="translate(170.964844 0)"/>
      <use xlink:href="#DejaVuSans-4f" transform="translate(202.751953 0)"/>
      <use xlink:href="#DejaVuSans-32" transform="translate(281.462891 0)"/>
      <use xlink:href="#DejaVuSans-4f" transform="translate(345.085938 0)"/>
      <use xlink:href="#DejaVuSans-2d" transform="translate(426.546875 0)"/>
      <use xlink:href="#DejaVuSans-49" transform="translate(462.630859 0)"/>
      <use xlink:href="#DejaVuSans-51" transform="translate(492.123047 0)"/>
      <use xlink:href="#DejaVuSans-4c" transform="translate(570.833984 0)"/>
     </g>
    </g>
    <g id="line2d_38">
     <path d="M 69.807813 296.186094 
L 78.807813 296.186094 
L 87.807813 296.186094 
" style="fill: none; stroke: #2ca02c; stroke-width: 1.9; stroke-linecap: square"/>
     <g>
      <use xlink:href="#m1a48f3f750" x="78.807813" y="296.186094" style="fill: #2ca02c; stroke: #2ca02c; stroke-linejoin: miter"/>
     </g>
    </g>
    <g id="text_20">
     <!-- No anneal -->
     <g transform="translate(95.007813 299.336094) scale(0.09 -0.09)">
      <defs>
       <path id="DejaVuSans-4e" d="M 628 4666 
L 1478 4666 
L 3547 763 
L 3547 4666 
L 4159 4666 
L 4159 0 
L 3309 0 
L 1241 3903 
L 1241 0 
L 628 0 
L 628 4666 
z
" transform="scale(0.015625)"/>
      </defs>
      <use xlink:href="#DejaVuSans-4e"/>
      <use xlink:href="#DejaVuSans-6f" transform="translate(74.804688 0)"/>
      <use xlink:href="#DejaVuSans-20" transform="translate(135.986328 0)"/>
      <use xlink:href="#DejaVuSans-61" transform="translate(167.773438 0)"/>
      <use xlink:href="#DejaVuSans-6e" transform="translate(229.052734 0)"/>
      <use xlink:href="#DejaVuSans-6e" transform="translate(292.431641 0)"/>
      <use xlink:href="#DejaVuSans-65" transform="translate(355.810547 0)"/>
      <use xlink:href="#DejaVuSans-61" transform="translate(417.333984 0)"/>
      <use xlink:href="#DejaVuSans-6c" transform="translate(478.613281 0)"/>
     </g>
    </g>
    <g id="line2d_39">
     <path d="M 69.807813 309.396406 
L 78.807813 309.396406 
L 87.807813 309.396406 
" style="fill: none; stroke: #ff7f0e; stroke-width: 1.9; stroke-linecap: square"/>
     <g>
      <use xlink:href="#maa80d36f61" x="78.807813" y="309.396406" style="fill: #ff7f0e; stroke: #ff7f0e; stroke-linejoin: miter"/>
     </g>
    </g>
    <g id="text_21">
     <!-- No dual buffer -->
     <g transform="translate(95.007813 312.546406) scale(0.09 -0.09)">
      <defs>
       <path id="DejaVuSans-66" d="M 2375 4863 
L 2375 4384 
L 1825 4384 
Q 1516 4384 1395 4259 
Q 1275 4134 1275 3809 
L 1275 3500 
L 2222 3500 
L 2222 3053 
L 1275 3053 
L 1275 0 
L 697 0 
L 697 3053 
L 147 3053 
L 147 3500 
L 697 3500 
L 697 3744 
Q 697 4328 969 4595 
Q 1241 4863 1831 4863 
L 2375 4863 
z
" transform="scale(0.015625)"/>
      </defs>
      <use xlink:href="#DejaVuSans-4e"/>
      <use xlink:href="#DejaVuSans-6f" transform="translate(74.804688 0)"/>
      <use xlink:href="#DejaVuSans-20" transform="translate(135.986328 0)"/>
      <use xlink:href="#DejaVuSans-64" transform="translate(167.773438 0)"/>
      <use xlink:href="#DejaVuSans-75" transform="translate(231.25 0)"/>
      <use xlink:href="#DejaVuSans-61" transform="translate(294.628906 0)"/>
      <use xlink:href="#DejaVuSans-6c" transform="translate(355.908203 0)"/>
      <use xlink:href="#DejaVuSans-20" transform="translate(383.691406 0)"/>
      <use xlink:href="#DejaVuSans-62" transform="translate(415.478516 0)"/>
      <use xlink:href="#DejaVuSans-75" transform="translate(478.955078 0)"/>
      <use xlink:href="#DejaVuSans-66" transform="translate(542.333984 0)"/>
      <use xlink:href="#DejaVuSans-66" transform="translate(577.539062 0)"/>
      <use xlink:href="#DejaVuSans-65" transform="translate(612.744141 0)"/>
      <use xlink:href="#DejaVuSans-72" transform="translate(674.267578 0)"/>
     </g>
    </g>
    <g id="line2d_40">
     <path d="M 177.392969 282.975781 
L 186.392969 282.975781 
L 195.392969 282.975781 
" style="fill: none; stroke: #9467bd; stroke-width: 1.9; stroke-linecap: square"/>
     <g>
      <use xlink:href="#mf70d540eb2" x="186.392969" y="282.975781" style="fill: #9467bd; stroke: #9467bd; stroke-linejoin: miter"/>
     </g>
    </g>
    <g id="text_22">
     <!-- No offline -->
     <g transform="translate(202.592969 286.125781) scale(0.09 -0.09)">
      <use xlink:href="#DejaVuSans-4e"/>
      <use xlink:href="#DejaVuSans-6f" transform="translate(74.804688 0)"/>
      <use xlink:href="#DejaVuSans-20" transform="translate(135.986328 0)"/>
      <use xlink:href="#DejaVuSans-6f" transform="translate(167.773438 0)"/>
      <use xlink:href="#DejaVuSans-66" transform="translate(228.955078 0)"/>
      <use xlink:href="#DejaVuSans-66" transform="translate(264.160156 0)"/>
      <use xlink:href="#DejaVuSans-6c" transform="translate(299.365234 0)"/>
      <use xlink:href="#DejaVuSans-69" transform="translate(327.148438 0)"/>
      <use xlink:href="#DejaVuSans-6e" transform="translate(354.931641 0)"/>
      <use xlink:href="#DejaVuSans-65" transform="translate(418.310547 0)"/>
     </g>
    </g>
    <g id="line2d_41">
     <path d="M 177.392969 296.186094 
L 186.392969 296.186094 
L 195.392969 296.186094 
" style="fill: none; stroke: #8c564b; stroke-width: 1.9; stroke-linecap: square"/>
     <g>
      <use xlink:href="#m7383efbcf4" x="186.392969" y="296.186094" style="fill: #8c564b; stroke: #8c564b; stroke-linejoin: miter"/>
     </g>
    </g>
    <g id="text_23">
     <!-- No density priority -->
     <g transform="translate(202.592969 299.336094) scale(0.09 -0.09)">
      <defs>
       <path id="DejaVuSans-79" d="M 2059 -325 
Q 1816 -950 1584 -1140 
Q 1353 -1331 966 -1331 
L 506 -1331 
L 506 -850 
L 844 -850 
Q 1081 -850 1212 -737 
Q 1344 -625 1503 -206 
L 1606 56 
L 191 3500 
L 800 3500 
L 1894 763 
L 2988 3500 
L 3597 3500 
L 2059 -325 
z
" transform="scale(0.015625)"/>
      </defs>
      <use xlink:href="#DejaVuSans-4e"/>
      <use xlink:href="#DejaVuSans-6f" transform="translate(74.804688 0)"/>
      <use xlink:href="#DejaVuSans-20" transform="translate(135.986328 0)"/>
      <use xlink:href="#DejaVuSans-64" transform="translate(167.773438 0)"/>
      <use xlink:href="#DejaVuSans-65" transform="translate(231.25 0)"/>
      <use xlink:href="#DejaVuSans-6e" transform="translate(292.773438 0)"/>
      <use xlink:href="#DejaVuSans-73" transform="translate(356.152344 0)"/>
      <use xlink:href="#DejaVuSans-69" transform="translate(408.251953 0)"/>
      <use xlink:href="#DejaVuSans-74" transform="translate(436.035156 0)"/>
      <use xlink:href="#DejaVuSans-79" transform="translate(475.244141 0)"/>
      <use xlink:href="#DejaVuSans-20" transform="translate(534.423828 0)"/>
      <use xlink:href="#DejaVuSans-70" transform="translate(566.210938 0)"/>
      <use xlink:href="#DejaVuSans-72" transform="translate(629.6875 0)"/>
      <use xlink:href="#DejaVuSans-69" transform="translate(670.800781 0)"/>
      <use xlink:href="#DejaVuSans-6f" transform="translate(698.583984 0)"/>
      <use xlink:href="#DejaVuSans-72" transform="translate(759.765625 0)"/>
      <use xlink:href="#DejaVuSans-69" transform="translate(800.878906 0)"/>
      <use xlink:href="#DejaVuSans-74" transform="translate(828.662109 0)"/>
      <use xlink:href="#DejaVuSans-79" transform="translate(867.871094 0)"/>
     </g>
    </g>
    <g id="line2d_42">
     <path d="M 177.392969 309.396406 
L 186.392969 309.396406 
L 195.392969 309.396406 
" style="fill: none; stroke-dasharray: 5.92,2.56; stroke-dashoffset: 0; stroke: #7f7f7f; stroke-width: 1.6"/>
    </g>
    <g id="text_24">
     <!-- Offline only -->
     <g transform="translate(202.592969 312.546406) scale(0.09 -0.09)">
      <use xlink:href="#DejaVuSans-4f"/>
      <use xlink:href="#DejaVuSans-66" transform="translate(78.710938 0)"/>
      <use xlink:href="#DejaVuSans-66" transform="translate(113.916016 0)"/>
      <use xlink:href="#DejaVuSans-6c" transform="translate(149.121094 0)"/>
      <use xlink:href="#DejaVuSans-69" transform="translate(176.904297 0)"/>
      <use xlink:href="#DejaVuSans-6e" transform="translate(204.6875 0)"/>
      <use xlink:href="#DejaVuSans-65" transform="translate(268.066406 0)"/>
      <use xlink:href="#DejaVuSans-20" transform="translate(329.589844 0)"/>
      <use xlink:href="#DejaVuSans-6f" transform="translate(361.376953 0)"/>
      <use xlink:href="#DejaVuSans-6e" transform="translate(422.558594 0)"/>
      <use xlink:href="#DejaVuSans-6c" transform="translate(485.9375 0)"/>
      <use xlink:href="#DejaVuSans-79" transform="translate(513.720703 0)"/>
     </g>
    </g>
   </g>
  </g>
 </g>
 <defs>
  <clipPath id="pb45f1f3a7b">
   <rect x="61.707813" y="22.318125" width="591.275" height="300.2"/>
  </clipPath>
 </defs>
</svg>
